<?xml version="1.0" standalone="no"?>
<!DOCTYPE svg PUBLIC "-//W3C//DTD SVG 20010904//EN"
 "http://www.w3.org/TR/2001/REC-SVG-20010904/DTD/svg10.dtd">
<svg version="1.0" xmlns="http://www.w3.org/2000/svg"
 width="150.000000pt" height="150.000000pt" viewBox="0 0 150.000000 150.000000"
 preserveAspectRatio="xMidYMid meet">
<metadata>
Created by potrace 1.14, written by Peter Selinger 2001-2017
</metadata>
<g transform="translate(0.000000,150.000000) scale(0.100000,-0.100000)"
fill="#000000" stroke="none">
<path d="M0 1298 l0 -203 148 1 c212 1 360 25 476 77 42 19 59 21 96 15 25 -5
126 -10 225 -11 160 -3 184 -6 221 -24 46 -25 93 -74 151 -159 62 -90 83 -106
134 -102 l44 3 1 303 1 302 -749 0 -748 0 0 -202z"/>
<path d="M824 850 c4 -38 3 -40 -24 -40 -46 0 -72 -29 -77 -86 -2 -29 1 -59 9
-74 12 -22 21 -25 78 -27 l65 -3 0 135 0 135 -28 0 c-27 0 -28 -2 -23 -40z m5
-130 c1 -44 -1 -48 -25 -54 -33 -9 -35 -7 -37 42 -1 46 15 72 42 65 14 -3 18
-16 20 -53z"/>
<path d="M473 713 c0 -91 1 -93 24 -93 22 0 23 3 19 58 -3 61 6 92 29 92 19 0
28 -40 23 -101 -5 -47 -4 -49 21 -49 26 0 26 1 26 72 0 68 2 73 23 76 24 4 26
-7 22 -105 -1 -40 0 -43 24 -43 26 0 26 0 21 68 -10 120 -18 131 -76 110 -18
-6 -34 -7 -38 -2 -3 5 -31 9 -62 10 l-56 0 0 -93z"/>
<path d="M929 799 c-28 -10 -42 -40 -32 -65 3 -8 23 -24 44 -35 22 -11 39 -25
39 -33 0 -15 -33 -14 -52 2 -16 13 -38 -1 -38 -25 0 -15 61 -27 95 -19 49 13
45 80 -6 98 -37 13 -56 43 -32 52 15 6 32 -8 33 -26 0 -15 40 -8 40 7 0 19
-36 55 -52 54 -7 0 -25 -5 -39 -10z"/>
<path d="M0 270 l0 -270 735 0 c404 0 742 3 750 6 13 5 15 40 15 236 l0 229
-37 -7 c-21 -5 -58 -7 -83 -5 -330 21 -636 -65 -667 -186 -4 -16 -10 -22 -21
-18 -8 3 -51 8 -96 12 -77 6 -120 7 -247 3 -104 -4 -168 40 -269 182 -30 43
-61 80 -67 82 -10 4 -13 -53 -13 -264z"/>
</g>
</svg>
